<?xml version="1.0" encoding="UTF-8" standalone="no"?>
<svg
   xmlns:dc="http://purl.org/dc/elements/1.1/"
   xmlns:cc="http://creativecommons.org/ns#"
   xmlns:rdf="http://www.w3.org/1999/02/22-rdf-syntax-ns#"
   xmlns:svg="http://www.w3.org/2000/svg"
   xmlns="http://www.w3.org/2000/svg"
   xmlns:sodipodi="http://sodipodi.sourceforge.net/DTD/sodipodi-0.dtd"
   xmlns:inkscape="http://www.inkscape.org/namespaces/inkscape"
   width="25"
   height="50"
   viewBox="0 0 6.6145832 13.229167"
   version="1.1"
   id="svg8"
   inkscape:version="1.0 (6e3e5246a0, 2020-05-07)"
   sodipodi:docname="player_right.svg">
  <defs
     id="defs2" />
  <sodipodi:namedview
     id="base"
     pagecolor="#ffffff"
     bordercolor="#666666"
     borderopacity="1.0"
     inkscape:pageopacity="0.0"
     inkscape:pageshadow="2"
     inkscape:zoom="10.688648"
     inkscape:cx="16.16752"
     inkscape:cy="19.937182"
     inkscape:document-units="mm"
     inkscape:current-layer="layer1"
     inkscape:document-rotation="0"
     showgrid="false"
     units="px"
     inkscape:window-width="1920"
     inkscape:window-height="1016"
     inkscape:window-x="0"
     inkscape:window-y="27"
     inkscape:window-maximized="1" />
  <metadata
     id="metadata5">
    <rdf:RDF>
      <cc:Work
         rdf:about="">
        <dc:format>image/svg+xml</dc:format>
        <dc:type
           rdf:resource="http://purl.org/dc/dcmitype/StillImage" />
        <dc:title></dc:title>
      </cc:Work>
    </rdf:RDF>
  </metadata>
  <g
     inkscape:label="Layer 1"
     inkscape:groupmode="layer"
     id="layer1">
    <path
       transform="scale(0.26458333)"
       d="M 12.759766 2.59375 A 6.8785259 6.7928534 0 0 0 5.8808594 9.3867188 A 6.8785259 6.7928534 0 0 0 12.759766 16.179688 A 6.8785259 6.7928534 0 0 0 18.269531 13.453125 A 3.8165065 0.88734901 0 0 1 14.625 12.566406 A 3.8165065 0.88734901 0 0 1 18.441406 11.679688 A 3.8165065 0.88734901 0 0 1 19.228516 11.699219 A 6.8785259 6.7928534 0 0 0 19.638672 9.3867188 A 6.8785259 6.7928534 0 0 0 12.759766 2.59375 z "
       style="fill:#000080;stroke-width:0.999999"
       id="path38" />
    <rect
       style="fill:#000080;stroke-width:0.264583"
       id="rect42"
       width="0.71167272"
       height="4.5044107"
       x="3.0090868"
       y="3.982481" />
    <rect
       style="fill:#000080;stroke-width:0.264583"
       id="rect44"
       width="0.5818544"
       height="4.4400902"
       x="3.4938297"
       y="8.1831827"
       transform="rotate(4.8794877)" />
    <rect
       style="fill:#000080;stroke-width:0.138469"
       id="rect48"
       width="2.517906"
       height="0.38323176"
       x="6.178019"
       y="1.390738"
       transform="rotate(44.248819)" />
    <rect
       y="8.7556133"
       x="2.6296256"
       height="4.4400902"
       width="0.5818544"
       id="rect44-3"
       style="fill:#000080;stroke-width:0.264583"
       transform="rotate(-4.8794877)" />
    <ellipse
       ry="0.32160252"
       rx="0.28450444"
       cy="1.9250405"
       cx="4.0492139"
       id="path65-6"
       style="fill:#ffffff;stroke-width:0.264583" />
  </g>
</svg>
